<svg width="25" height="24" viewBox="0 0 25 24" fill="none" xmlns="http://www.w3.org/2000/svg">
<g clip-path="url(#clip0_4430_6919)">
<path d="M22.4301 6.76094L19.0601 20.2909C18.9432 20.7802 18.6641 21.2155 18.2683 21.526C17.8725 21.8365 17.3832 22.0039 16.8801 22.0009H3.74014C2.23014 22.0009 1.15014 20.5209 1.60014 19.0709L5.81014 5.55094C5.95082 5.09244 6.23432 4.69088 6.61929 4.40485C7.00426 4.11882 7.47055 3.96329 7.95014 3.96094H20.2501C21.2001 3.96094 21.9901 4.54094 22.3201 5.34094C22.5101 5.77094 22.5501 6.26094 22.4301 6.76094Z" stroke="#2F4858" stroke-opacity="0.8" stroke-width="1.5" stroke-miterlimit="10"/>
<path d="M16.5002 22.0008H21.2802C22.5702 22.0008 23.5802 20.9108 23.4902 19.6208L22.5002 6.00078M10.1802 6.38078L11.2202 2.06078M16.8802 6.39078L17.8202 2.05078M8.2002 12.0008H16.2002M7.2002 16.0008H15.2002" stroke="#2F4858" stroke-opacity="0.8" stroke-width="1.5" stroke-miterlimit="10" stroke-linecap="round" stroke-linejoin="round"/>
</g>
<defs>
<clipPath id="clip0_4430_6919">
<rect width="24" height="24" fill="white" transform="translate(0.5)"/>
</clipPath>
</defs>
</svg>
