<svg width="25" height="24" viewBox="0 0 25 24" fill="none" xmlns="http://www.w3.org/2000/svg">
<path d="M3.91992 7.43945L12.7499 12.5494L21.5199 7.46942" stroke="#2F4858" stroke-opacity="0.8" stroke-width="1.5" stroke-linecap="round" stroke-linejoin="round"/>
<path d="M12.75 21.6091V12.5391" stroke="#2F4858" stroke-opacity="0.8" stroke-width="1.5" stroke-linecap="round" stroke-linejoin="round"/>
<path d="M22.3601 12.83V9.17C22.3601 7.79 21.3701 6.11002 20.1601 5.44002L14.8201 2.48C13.6801 1.84 11.8201 1.84 10.6801 2.48L5.34012 5.44002C4.13012 6.11002 3.14014 7.79 3.14014 9.17V14.83C3.14014 16.21 4.13012 17.89 5.34012 18.56L10.6801 21.52C11.2501 21.84 12.0001 22 12.7501 22C13.5001 22 14.2501 21.84 14.8201 21.52" stroke="#2F4858" stroke-opacity="0.8" stroke-width="1.5" stroke-linecap="round" stroke-linejoin="round"/>
<path d="M19.95 21.4C21.7173 21.4 23.15 19.9673 23.15 18.2C23.15 16.4327 21.7173 15 19.95 15C18.1827 15 16.75 16.4327 16.75 18.2C16.75 19.9673 18.1827 21.4 19.95 21.4Z" stroke="#2F4858" stroke-opacity="0.8" stroke-width="1.5" stroke-linecap="round" stroke-linejoin="round"/>
<path d="M23.75 22L22.75 21" stroke="#2F4858" stroke-opacity="0.8" stroke-width="1.5" stroke-linecap="round" stroke-linejoin="round"/>
</svg>
